<?xml version="1.0" encoding="utf-8"?>
<!-- Generator: Adobe Illustrator 24.0.1, SVG Export Plug-In . SVG Version: 6.00 Build 0)  -->
<svg version="1.1"
	 id="Layer_1" inkscape:version="1.1 (ce6663b3b7, 2021-05-25)" sodipodi:docname="YouWhoMarker.svg" xmlns:inkscape="http://www.inkscape.org/namespaces/inkscape" xmlns:sodipodi="http://sodipodi.sourceforge.net/DTD/sodipodi-0.dtd" xmlns:svg="http://www.w3.org/2000/svg"
	 xmlns="http://www.w3.org/2000/svg" xmlns:xlink="http://www.w3.org/1999/xlink" x="0px" y="0px" viewBox="0 0 89.4 69.6"
	 style="enable-background:new 0 0 89.4 69.6;" xml:space="preserve">
<style type="text/css">
	.st0{fill-rule:evenodd;clip-rule:evenodd;fill:#999999;}
	.st1{fill:#FF3000;}
	.st2{fill:#FFD91D;}
	.st3{fill:#FFFFFF;}
	.st4{fill:#EFEFEF;}
</style>
<sodipodi:namedview  bordercolor="#666666" borderopacity="1.0" id="namedview8" inkscape:current-layer="layer2" inkscape:cx="38.029488" inkscape:cy="32.321208" inkscape:pagecheckerboard="0" inkscape:pageopacity="0.0" inkscape:pageshadow="2" inkscape:window-height="1012" inkscape:window-maximized="1" inkscape:window-width="1920" inkscape:window-x="0" inkscape:window-y="0" inkscape:zoom="6.4818122" pagecolor="#ffffff" showgrid="false" width="100px">
	</sodipodi:namedview>
<g id="layer2" transform="translate(-0.32000437,-2.0709998)" inkscape:groupmode="layer" inkscape:label="Layer 2">
	
		<path id="path107" inkscape:flatsided="false" inkscape:randomized="0" inkscape:rounded="0.15" inkscape:transform-center-y="2.2793056" sodipodi:arg1="-0.52359878" sodipodi:arg2="0.52359878" sodipodi:cx="216.6982" sodipodi:cy="192.61092" sodipodi:r1="7.264112" sodipodi:r2="4.6490316" sodipodi:sides="3" sodipodi:type="star" class="st0" d="
		M51.7,58c0.7,1-2.5,6.4-3.1,7.5c-0.7,1-4.2,6.2-5.6,6.2s-4.9-5.2-5.6-6.2s-3.8-6.4-3.1-7.5c0.7-1,7.4-1.3,8.7-1.3S51,57,51.7,58
		L51.7,58z"/>
	<g>
		<g>
			<g id="Layer_1_2_">
				<path class="st1" d="M43,2.6L43,2.6c14.4,0,26.1,11.7,26.1,26.1l0,0c0,14.4-11.7,26.1-26.1,26.1l0,0
					c-14.4,0-26.1-11.7-26.1-26.1l0,0C16.9,14.3,28.6,2.6,43,2.6z"/>
				<path class="st2" d="M43.6,15.2c0-1.1-0.9-2.1-2-2.1l0,0c-1.1,0-2.1,0.9-2.1,2s0.9,2.1,2,2.1C42.7,17.1,43.6,16.3,43.6,15.2z"/>
				<path class="st2" d="M50.8,25.5c1.7-0.2,3.3-1,4.6-2.2l0.1-0.1c0.4-0.4,0.9-0.7,1.5-0.7c0.5,0,6,0,6,0l-2,2.7
					c-2.5,3.5-5.9,5.4-10.1,5.8L50.8,25.5z"/>
				<path class="st3" d="M50.9,31.1v-5.6c0-1.1,0-9.7,0-13.6c0-1-0.7-1.9-1.8-1.9l0,0h-2c-1,0-1.8,0.9-1.8,1.9v13.7h-3.4
					c-4.3-0.1-7.8-3.6-7.9-7.9c0-1.6,0-3.2,0-4.7c0-0.4-0.1-0.8-0.4-1.2c-0.3-0.4-0.8-0.6-1.3-0.6h-2.1c-0.4,0-0.8,0.1-1.2,0.4
					c-0.4,0.3-0.6,0.8-0.6,1.3c0,2.2,0,3.8,0.1,5.4c0.1,3.3,1.4,6.2,3.8,8.6c2.7,2.8,6.1,4.2,10.1,4.2h2.9v10.5
					c0,1.6-1.1,3.1-2.8,3.3C42.4,45,42.2,45,42,45c-1.7,0-3.1-1.3-3.2-3c0-1.1,0-2.1,0-3.1c0-0.4-0.1-0.8-0.4-1.2
					c-0.3-0.4-0.8-0.6-1.3-0.6h-2.2c-0.9,0-1.7,0.8-1.7,1.7c0,1.3,0,2.7,0.1,4c0.4,3.4,2.3,5.9,5.4,7.2c1.1,0.5,2.2,0.7,3.4,0.7l0,0
					c2,0,3.8-0.7,5.5-2.1c2.1-1.8,3.2-4.1,3.2-6.9C50.9,39.1,50.9,32.1,50.9,31.1z"/>
				<polygon class="st4" points="45.3,25.6 50.9,25.5 50.9,31.1 45.3,31.1 				"/>
			</g>
		</g>
	</g>
</g>
</svg>
