<?xml version="1.0" encoding="utf-8"?>
<!-- Generator: Adobe Illustrator 24.0.1, SVG Export Plug-In . SVG Version: 6.00 Build 0)  -->
<svg version="1.1"
	 id="Layer_1" inkscape:version="1.1 (ce6663b3b7, 2021-05-25)" sodipodi:docname="YouWhoLogo.svg" xmlns:inkscape="http://www.inkscape.org/namespaces/inkscape" xmlns:sodipodi="http://sodipodi.sourceforge.net/DTD/sodipodi-0.dtd" xmlns:svg="http://www.w3.org/2000/svg"
	 xmlns="http://www.w3.org/2000/svg" xmlns:xlink="http://www.w3.org/1999/xlink" x="0px" y="0px" viewBox="0 0 65.1 69.6"
	 style="enable-background:new 0 0 65.1 69.6;" xml:space="preserve">
<style type="text/css">
	.st0{opacity:0.1;}
	.st1{fill:#D0D0D0;}
	.st2{fill:#696969;}
	.st3{fill:#8F8F8F;}
</style>
<sodipodi:namedview  bordercolor="#666666" borderopacity="1.0" id="namedview8" inkscape:current-layer="layer2" inkscape:cx="38.029488" inkscape:cy="32.321208" inkscape:pagecheckerboard="0" inkscape:pageopacity="0.0" inkscape:pageshadow="2" inkscape:window-height="1012" inkscape:window-maximized="1" inkscape:window-width="1920" inkscape:window-x="0" inkscape:window-y="0" inkscape:zoom="6.4818122" pagecolor="#ffffff" showgrid="false" width="100px">
	</sodipodi:namedview>
<g class="st0">
	<title>youwho-logo-new</title>
	<path class="st1" d="M32.1,9.7c0-1.9-1.5-3.5-3.3-3.5c-1.9,0-3.5,1.5-3.5,3.3s1.5,3.5,3.3,3.5C30.7,12.9,32.1,11.5,32.1,9.7z"/>
	<path class="st1" d="M44.1,26.9c2.9-0.4,5.6-1.7,7.6-3.7l0.1-0.1c0.7-0.7,1.5-1.1,2.5-1.1c0.8,0,10,0,10,0l-3.2,4.5
		c-4.1,5.9-9.8,9-16.9,9.7L44.1,26.9z"/>
	<path class="st2" d="M44.2,36.2v-9.3c0-1.9,0-16.2,0-22.7c0-1.7-1.2-3.2-2.9-3.2H38c-1.7,0.1-3.1,1.5-2.9,3.2v22.7h-5.7
		c-7.2-0.1-13-6-13.2-13.2c0-2.7,0-5.3,0-7.8c0-0.7-0.3-1.3-0.7-2c-0.5-0.7-1.3-1.1-2.1-1.1H9.8c-0.7,0-1.3,0.3-2,0.7
		C7.1,4,6.7,4.8,6.7,5.6c0,3.6,0,6.4,0.1,9C7,20.1,9.1,24.9,13.1,29c4.5,4.7,10.2,7,16.9,7h4.8v17.6c0,2.8-1.9,5.1-4.7,5.6
		c-0.3,0-0.5,0.1-0.9,0.1c-2.8,0-5.2-2.3-5.3-5.1c0-1.7,0-3.5,0-5.2c0-0.7-0.3-1.3-0.7-2C22.7,46.4,21.9,46,21,46h-3.6
		c-1.6,0-2.8,1.2-2.8,2.8c0,2.3,0,4.4,0.3,6.7c0.7,5.6,3.7,9.7,9,12c1.9,0.8,3.7,1.2,5.7,1.2l0,0c3.3,0,6.4-1.2,9.2-3.5
		c3.6-2.9,5.3-6.8,5.3-11.6C44.1,49.6,44.2,37.9,44.2,36.2z"/>
	<polygon class="st3" points="34.9,27 44.1,26.9 44.2,36.2 34.9,36.3 	"/>
</g>
</svg>
